<svg width="30" height="24" viewBox="0 0 30 24" fill="none" xmlns="http://www.w3.org/2000/svg">
<path d="M30 9.33333V22.6667C30 23.0203 29.842 23.3594 29.5607 23.6095C29.2794 23.8595 28.8978 24 28.5 24H1.5C1.10218 24 0.720644 23.8595 0.43934 23.6095C0.158035 23.3594 0 23.0203 0 22.6667V9.33333H30ZM30 6.66667H0V1.33333C0 0.979711 0.158035 0.640573 0.43934 0.390524C0.720644 0.140476 1.10218 0 1.5 0H28.5C28.8978 0 29.2794 0.140476 29.5607 0.390524C29.842 0.640573 30 0.979711 30 1.33333V6.66667ZM19.5 17.3333V20H25.5V17.3333H19.5Z" fill="#E0BEA2"/>
</svg>
