<svg width="28" height="30" viewBox="0 0 28 30" fill="none" xmlns="http://www.w3.org/2000/svg">
<path d="M26 30H2C1.60218 30 1.22064 29.842 0.93934 29.5607C0.658035 29.2794 0.5 28.8978 0.5 28.5V1.5C0.5 1.10218 0.658035 0.720644 0.93934 0.43934C1.22064 0.158035 1.60218 0 2 0H26C26.3978 0 26.7794 0.158035 27.0607 0.43934C27.342 0.720644 27.5 1.10218 27.5 1.5V28.5C27.5 28.8978 27.342 29.2794 27.0607 29.5607C26.7794 29.842 26.3978 30 26 30ZM8 7.5V10.5H20V7.5H8ZM8 13.5V16.5H20V13.5H8ZM8 19.5V22.5H15.5V19.5H8Z" fill="#E0BEA2"/>
</svg>
