<svg width="17" height="17" viewBox="0 0 17 17" fill="none" xmlns="http://www.w3.org/2000/svg">
<path d="M8.5 6.12504C7.87011 6.12504 7.26602 6.37526 6.82062 6.82066C6.37522 7.26606 6.125 7.87015 6.125 8.50004C6.125 9.12993 6.37522 9.73402 6.82062 10.1794C7.26602 10.6248 7.87011 10.875 8.5 10.875C9.12988 10.875 9.73398 10.6248 10.1794 10.1794C10.6248 9.73402 10.875 9.12993 10.875 8.50004C10.875 7.87015 10.6248 7.26606 10.1794 6.82066C9.73398 6.37526 9.12988 6.12504 8.5 6.12504ZM8.5 4.54171C9.54981 4.54171 10.5566 4.95875 11.299 5.70108C12.0413 6.44341 12.4583 7.45023 12.4583 8.50004C12.4583 9.54986 12.0413 10.5567 11.299 11.299C10.5566 12.0413 9.54981 12.4584 8.5 12.4584C7.45018 12.4584 6.44336 12.0413 5.70103 11.299C4.9587 10.5567 4.54166 9.54986 4.54166 8.50004C4.54166 7.45023 4.9587 6.44341 5.70103 5.70108C6.44336 4.95875 7.45018 4.54171 8.5 4.54171ZM13.6458 4.34379C13.6458 4.60625 13.5416 4.85795 13.356 5.04353C13.1704 5.22912 12.9187 5.33337 12.6562 5.33337C12.3938 5.33337 12.1421 5.22912 11.9565 5.04353C11.7709 4.85795 11.6667 4.60625 11.6667 4.34379C11.6667 4.08134 11.7709 3.82963 11.9565 3.64405C12.1421 3.45847 12.3938 3.35421 12.6562 3.35421C12.9187 3.35421 13.1704 3.45847 13.356 3.64405C13.5416 3.82963 13.6458 4.08134 13.6458 4.34379ZM8.5 2.16671C6.54141 2.16671 6.22158 2.17225 5.31037 2.21262C4.6897 2.24192 4.27329 2.32504 3.88695 2.47546C3.54337 2.60846 3.29558 2.76758 3.03195 3.032C2.78417 3.2714 2.59365 3.56367 2.47462 3.887C2.3242 4.27492 2.24108 4.69054 2.21258 5.31042C2.17141 6.18442 2.16666 6.49 2.16666 8.50004C2.16666 10.4586 2.1722 10.7785 2.21258 11.6897C2.24187 12.3095 2.325 12.7268 2.47462 13.1123C2.6092 13.4567 2.76754 13.7045 3.03037 13.9673C3.29716 14.2333 3.54495 14.3924 3.88537 14.5238C4.27645 14.675 4.69287 14.759 5.31037 14.7875C6.18437 14.8286 6.48995 14.8334 8.5 14.8334C10.4586 14.8334 10.7784 14.8278 11.6896 14.7875C12.3087 14.7582 12.7259 14.675 13.1122 14.5254C13.455 14.3916 13.7044 14.2325 13.9672 13.9697C14.234 13.7029 14.3932 13.4551 14.5246 13.1147C14.675 12.7244 14.7589 12.3072 14.7874 11.6897C14.8286 10.8157 14.8333 10.5101 14.8333 8.50004C14.8333 6.54146 14.8278 6.22162 14.7874 5.31042C14.7581 4.69133 14.675 4.27333 14.5246 3.887C14.4053 3.564 14.2151 3.27184 13.968 3.032C13.7287 2.78409 13.4364 2.59355 13.113 2.47467C12.7251 2.32425 12.3087 2.24112 11.6896 2.21262C10.8156 2.17146 10.51 2.16671 8.5 2.16671ZM8.5 0.583374C10.651 0.583374 10.9193 0.591291 11.7632 0.630874C12.6064 0.670457 13.1803 0.802666 13.6854 0.998999C14.2079 1.20008 14.6481 1.47242 15.0882 1.91179C15.4908 2.30754 15.8023 2.78626 16.001 3.31462C16.1966 3.81892 16.3296 4.39367 16.3692 5.23679C16.4064 6.08071 16.4167 6.34908 16.4167 8.50004C16.4167 10.651 16.4087 10.9194 16.3692 11.7633C16.3296 12.6064 16.1966 13.1804 16.001 13.6855C15.8029 14.2141 15.4913 14.6929 15.0882 15.0883C14.6924 15.4907 14.2137 15.8022 13.6854 16.0011C13.1811 16.1966 12.6064 16.3296 11.7632 16.3692C10.9193 16.4064 10.651 16.4167 8.5 16.4167C6.34904 16.4167 6.08066 16.4088 5.23675 16.3692C4.39362 16.3296 3.81966 16.1966 3.31458 16.0011C2.786 15.8028 2.3072 15.4912 1.91175 15.0883C1.50911 14.6926 1.19761 14.2139 0.998953 13.6855C0.80262 13.1812 0.670412 12.6064 0.630828 11.7633C0.59362 10.9194 0.583328 10.651 0.583328 8.50004C0.583328 6.34908 0.591245 6.08071 0.630828 5.23679C0.670412 4.39287 0.80262 3.81971 0.998953 3.31462C1.19706 2.78593 1.50863 2.30709 1.91175 1.91179C2.30732 1.50902 2.78608 1.19749 3.31458 0.998999C3.81966 0.802666 4.39283 0.670457 5.23675 0.630874C6.08066 0.593666 6.34904 0.583374 8.5 0.583374Z" fill="#E0BEA2"/>
</svg>
