<svg width="17" height="17" viewBox="0 0 17 17" fill="none" xmlns="http://www.w3.org/2000/svg">
<path d="M8.50001 14.8334C10.1797 14.8334 11.7906 14.1661 12.9784 12.9784C14.1661 11.7907 14.8333 10.1797 14.8333 8.50004C14.8333 6.82034 14.1661 5.20943 12.9784 4.0217C11.7906 2.83397 10.1797 2.16671 8.50001 2.16671C6.82031 2.16671 5.2094 2.83397 4.02167 4.0217C2.83394 5.20943 2.16668 6.82034 2.16668 8.50004C2.16668 10.1797 2.83394 11.7907 4.02167 12.9784C5.2094 14.1661 6.82031 14.8334 8.50001 14.8334ZM8.50001 16.4167C4.12764 16.4167 0.583344 12.8724 0.583344 8.50004C0.583344 4.12767 4.12764 0.583374 8.50001 0.583374C12.8724 0.583374 16.4167 4.12767 16.4167 8.50004C16.4167 12.8724 12.8724 16.4167 8.50001 16.4167ZM6.03793 9.42629L4.06034 8.80958C3.63284 8.67896 3.63047 8.38446 4.15614 8.17308L11.8614 5.19642C12.3087 5.01433 12.5621 5.24471 12.4172 5.82183L11.1054 12.0127C11.0136 12.4536 10.7483 12.5589 10.3802 12.3555L8.36068 10.8608L7.41939 11.7696C7.3228 11.863 7.24443 11.943 7.09559 11.9628C6.94755 11.9834 6.82564 11.939 6.73618 11.6936L6.04743 9.42075L6.03793 9.42629Z" fill="#E0BEA2"/>
</svg>
